<?xml version="1.0" standalone="no"?>
<!DOCTYPE svg PUBLIC "-//W3C//DTD SVG 20010904//EN"
 "http://www.w3.org/TR/2001/REC-SVG-20010904/DTD/svg10.dtd">
<svg version="1.0" xmlns="http://www.w3.org/2000/svg"
 width="512.000000pt" height="512.000000pt" viewBox="0 0 512.000000 512.000000"
 preserveAspectRatio="xMidYMid meet">

<g transform="translate(0.000000,512.000000) scale(0.100000,-0.100000)"
fill="#5c6168" stroke="none">
<path d="M29 5091 c-16 -16 -29 -40 -29 -53 0 -31 -22 3 853 -1332 411 -626
747 -1142 747 -1146 0 -4 -336 -520 -747 -1146 -875 -1335 -853 -1301 -853
-1332 0 -32 52 -82 84 -82 33 0 4979 2472 5012 2505 32 32 32 78 0 110 -33 33
-4979 2505 -5012 2505 -15 0 -38 -12 -55 -29z"/>
</g>
</svg>
