<?xml version="1.0" standalone="no"?>
<!DOCTYPE svg PUBLIC "-//W3C//DTD SVG 20010904//EN"
 "http://www.w3.org/TR/2001/REC-SVG-20010904/DTD/svg10.dtd">
<svg version="1.0" xmlns="http://www.w3.org/2000/svg"
 width="512.000000pt" height="512.000000pt" viewBox="0 0 512.000000 512.000000"
 preserveAspectRatio="xMidYMid meet">

<g transform="translate(0.000000,512.000000) scale(0.100000,-0.100000)"
fill="#5c6168" stroke="none">
<path d="M485 4781 c-22 -10 -48 -32 -57 -49 -20 -34 -23 -97 -7 -139 5 -16
449 -467 1012 -1030 l1001 -1002 -998 -992 c-603 -600 -1005 -1007 -1017
-1030 -39 -77 -12 -161 64 -198 50 -24 85 -26 130 -8 30 13 2119 2102 2154
2155 20 29 20 115 0 144 -34 53 -2112 2130 -2148 2149 -47 24 -83 24 -134 0z"/>
<path d="M2565 4768 c-38 -21 -74 -61 -80 -89 -16 -73 -48 -39 1018 -1107
l1012 -1012 -1007 -1008 c-553 -554 -1011 -1017 -1017 -1029 -31 -61 4 -149
72 -182 51 -25 85 -26 130 -7 19 8 472 455 1094 1077 1141 1144 1092 1090
1073 1175 -10 45 -22 57 -1255 1287 l-910 907 -55 0 c-30 0 -64 -6 -75 -12z"/>
</g>
</svg>
