<?xml version="1.0" standalone="no"?>
<!DOCTYPE svg PUBLIC "-//W3C//DTD SVG 20010904//EN"
 "http://www.w3.org/TR/2001/REC-SVG-20010904/DTD/svg10.dtd">
<svg version="1.0" xmlns="http://www.w3.org/2000/svg"
 width="512.000000pt" height="512.000000pt" viewBox="0 0 512.000000 512.000000"
 preserveAspectRatio="xMidYMid meet">

<g transform="translate(0.000000,512.000000) scale(0.100000,-0.100000)"
fill="#5c6168" stroke="none">
<path d="M157 4316 c-66 -18 -104 -52 -137 -121 -19 -39 -20 -82 -20 -1635 0
-1523 1 -1597 19 -1635 23 -51 74 -101 120 -117 53 -19 4789 -19 4842 0 46 16
97 66 120 117 18 38 19 112 19 1635 0 1526 -1 1597 -19 1635 -22 49 -65 93
-111 114 -32 15 -250 16 -2410 18 -1906 1 -2384 -1 -2423 -11z m279 -359 c12
-7 453 -390 980 -852 1225 -1074 1109 -975 1143 -975 22 0 51 19 118 78 627
551 1956 1714 1984 1735 38 29 94 36 130 17 50 -27 65 -125 27 -179 -13 -18
-351 -328 -753 -689 -401 -361 -730 -661 -730 -666 0 -5 95 -78 210 -161 364
-261 1196 -892 1227 -929 20 -24 24 -96 8 -127 -15 -27 -68 -52 -97 -44 -14 3
-167 108 -341 233 -761 547 -1194 852 -1211 852 -6 0 -113 -82 -237 -181 -125
-100 -243 -191 -261 -202 -37 -22 -107 -26 -140 -9 -10 6 -126 96 -258 202
-140 112 -245 190 -255 187 -14 -3 -911 -642 -1349 -960 -120 -87 -183 -127
-201 -127 -40 0 -93 40 -104 78 -19 67 -3 87 169 220 305 234 911 688 1098
822 103 73 187 139 187 145 0 7 -325 305 -722 662 -398 358 -734 662 -746 676
-50 53 -47 146 5 187 29 23 86 26 119 7z"/>
</g>
</svg>
