<?xml version="1.0" standalone="no"?>
<!DOCTYPE svg PUBLIC "-//W3C//DTD SVG 20010904//EN"
 "http://www.w3.org/TR/2001/REC-SVG-20010904/DTD/svg10.dtd">
<svg version="1.0" xmlns="http://www.w3.org/2000/svg"
 width="512.000000pt" height="512.000000pt" viewBox="0 0 512.000000 512.000000"
 preserveAspectRatio="xMidYMid meet">

<g transform="translate(0.000000,512.000000) scale(0.100000,-0.100000)"
fill="#5c6168" stroke="none">
<path d="M2405 5114 c-16 -2 -66 -9 -110 -15 -769 -100 -1421 -683 -1610
-1439 -62 -248 -75 -506 -37 -698 105 -519 557 -1295 1301 -2232 247 -311 594
-720 611 -720 5 0 64 64 132 143 887 1022 1526 1985 1723 2597 62 194 78 286
78 455 1 499 -204 984 -569 1349 -290 289 -646 471 -1064 541 -91 15 -392 28
-455 19z m323 -1120 c401 -82 684 -451 659 -859 -8 -130 -27 -197 -87 -320
-265 -536 -982 -621 -1375 -163 -246 286 -257 724 -27 1029 193 255 518 377
830 313z"/>
</g>
</svg>
